<?xml version="1.0" encoding="utf-8"?>
<!-- Generator: Adobe Illustrator 19.0.0, SVG Export Plug-In . SVG Version: 6.00 Build 0)  -->
<svg version="1.1" id="Logo" xmlns="http://www.w3.org/2000/svg" xmlns:xlink="http://www.w3.org/1999/xlink" x="0px" y="0px"
	 viewBox="0 0 537.5 93" style="enable-background:new 0 0 537.5 93;" xml:space="preserve">
<style type="text/css">
	.st0{fill:#FFCD05;}
	.st1{fill:#333333;}
	.st2{fill:#2B6A34;}
</style>
<g id="Triangle">
	<polygon class="st0" points="6,84.953 49.836,9.026 93.674,84.953 	"/>
</g>
<path id="Fork" class="st1" d="M49.472,57.541l6.767,4.242v16.971h8.051c0,0,0-14.969,0-20.41l-9.735-7.005V29.842h-9.437v21.497
	l-9.734,7.005c0,5.44,0,20.41,0,20.41h8.051V61.783l6.402-4.607"/>
<g id="Trailforks_Text">
	<path class="st1" d="M528.079,49.811c-2.245-3.291-7.689-7.5-16.333-12.631c-3.014-1.781-4.843-3.304-5.486-4.565
		c-0.675-1.262-1.011-3.139-1.011-5.631c0-1.938,0.299-3.384,0.899-4.338c0.599-0.955,1.483-1.431,2.651-1.431
		c1.076,0,1.846,0.354,2.307,1.061c0.462,0.707,0.692,2.352,0.692,4.935v5.535h18.033v-2.952c0-5.934-0.577-10.139-1.729-12.615
		c-1.153-2.475-3.506-4.527-7.057-6.158c-3.552-1.629-7.849-2.444-12.891-2.444c-4.614,0-8.55,0.746-11.809,2.237
		c-3.259,1.492-5.619,3.559-7.079,6.204c-1.461,2.645-2.191,6.826-2.191,12.545c0,3.967,0.515,7.227,1.545,9.778
		c1.03,2.552,2.329,4.551,3.897,5.996c1.568,1.445,4.766,3.768,9.594,6.965c4.827,3.167,7.855,5.427,9.086,6.779
		c1.199,1.354,1.8,4.229,1.8,8.625c0,1.998-0.316,3.506-0.946,4.521c-0.631,1.013-1.592,1.521-2.882,1.521
		c-1.293,0-2.192-0.399-2.699-1.199c-0.507-0.8-0.761-2.599-0.761-5.396v-9.087h-18.034v4.889c0,5.218,0.502,9.311,1.49,12.31
		c0.072,0.219,0.14,0.445,0.217,0.65c1.136,3.045,3.543,5.551,7.217,7.52c3.675,1.967,8.111,2.951,13.308,2.951
		c4.673,0,8.773-0.834,12.31-2.497c0.047-0.023,0.096-0.04,0.143-0.063c3.566-1.706,5.974-3.819,7.22-6.34
		c1.244-2.521,1.867-6.442,1.867-11.763C531.446,58.404,530.323,53.101,528.079,49.811z"/>
	<polygon class="st1" points="474.577,43.86 485.717,10.144 467.499,10.144 458.85,39.155 458.85,10.144 439.433,10.144 
		439.433,62.288 439.433,84.817 458.85,84.817 458.85,67.354 458.85,52.808 462.668,68.35 466.714,84.817 486.776,84.817 
		483.49,73.783 	"/>
	<path class="st1" d="M429.746,42.246c1.445-1.999,2.168-5.904,2.168-11.715c0-6.365-1.022-11-3.067-13.906
		c-2.045-2.906-4.689-4.712-7.933-5.419c-3.244-0.707-9.447-1.061-18.61-1.061H388.56v38.869v35.804h19.417V54.08v-2.932
		c2.675,0,4.327,0.477,4.958,1.428c0.349,0.528,0.598,1.537,0.752,2.993c0.128,1.18,0.194,2.646,0.194,4.433v24.815h18.033V65.122
		c0-1.827-0.017-3.412-0.047-4.809c-0.067-3.208-0.213-5.306-0.436-6.237c-0.323-1.337-1.147-2.805-2.469-4.404
		c-1.322-1.6-3.905-2.875-7.748-3.828C425.457,45.444,428.301,44.245,429.746,42.246z M412.566,38.625
		c-0.877,0.6-2.406,0.899-4.59,0.899V22.92c2.244,0,3.789,0.369,4.636,1.107c0.845,0.738,1.269,2.291,1.269,4.659v4.105
		C413.881,36.081,413.441,38.025,412.566,38.625z"/>
	<path class="st1" d="M377.306,16.417c-1.938-2.613-4.497-4.573-7.679-5.881c-3.183-1.307-6.774-1.96-10.771-1.96
		c-4.213,0-7.902,0.691-11.069,2.075c-3.167,1.384-5.682,3.367-7.541,5.95c-1.86,2.583-2.967,5.435-3.321,8.555
		c-0.256,2.262-0.418,5.692-0.488,10.256c-0.026,1.733-0.041,3.615-0.041,5.68v12.776c0,7.688,0.185,13.068,0.553,16.143
		c0.37,3.075,1.522,5.92,3.459,8.533c1.938,2.613,4.497,4.573,7.68,5.879c3.183,1.307,6.773,1.961,10.77,1.961
		c4.213,0,7.902-0.691,11.069-2.075c3.167-1.384,5.681-3.366,7.542-5.95c1.859-2.582,2.967-5.434,3.32-8.557
		c0.353-3.119,0.531-8.432,0.531-15.934v-6.745v-6.031c0-7.687-0.186-13.068-0.555-16.143
		C380.396,21.876,379.243,19.031,377.306,16.417z M361.9,63.646c0,4.398-0.185,7.18-0.553,8.349
		c-0.369,1.169-1.215,1.752-2.537,1.752c-1.291,0-2.114-0.508-2.467-1.521c-0.354-1.016-0.531-3.691-0.531-8.027v-23.73V29.332
		c0-3.844,0.269-6.158,0.808-6.942c0.537-0.784,1.315-1.176,2.329-1.176c1.199,0,1.99,0.484,2.375,1.453
		c0.384,0.968,0.576,3.19,0.576,6.665v12.726V63.646z"/>
	<polygon class="st1" points="299.358,25.738 299.358,84.817 318.776,84.817 318.776,53.454 330.768,53.454 330.768,39.248 
		318.776,39.248 318.776,30.805 318.776,25.088 332.243,25.088 332.243,10.144 299.358,10.144 	"/>
	<polygon class="st2" points="282.847,30.533 282.847,10.144 263.43,10.144 263.43,36.171 263.43,84.817 294.654,84.817 
		294.654,69.873 282.847,69.873 	"/>
	<polygon class="st2" points="236.217,44.074 236.217,84.817 255.634,84.817 255.634,38.436 255.634,10.144 236.217,10.144 	"/>
	<path class="st2" d="M221.814,10.144H193.75l-6.382,48.115l-3.522,26.558h20.075l1.167-13.422h6.946l1.042,13.422h19.844
		l-5.672-38.139L221.814,10.144z M204.84,58.158c0.115-1.5,0.27-3.209,0.461-5.106c0.649-6.458,1.737-15.203,3.266-26.257
		c0.742,9.347,1.483,17.567,2.222,24.664c0.246,2.357,0.491,4.59,0.736,6.699H204.84z"/>
	<path class="st2" d="M178.564,42.246c1.445-1.999,2.167-5.904,2.167-11.715c0-6.365-1.022-11-3.067-13.906
		c-2.046-2.906-4.689-4.712-7.933-5.419c-3.244-0.707-9.448-1.061-18.61-1.061h-13.745v62.633v12.04h19.418V67.139v-15.99
		c2.675,0,4.327,0.477,4.958,1.428c0.63,0.955,0.945,3.43,0.945,7.426v5.422v19.394h18.034V65.122c0-1.876-0.018-3.499-0.048-4.921
		c-0.069-3.145-0.214-5.203-0.436-6.125c-0.323-1.337-1.146-2.805-2.468-4.404c-1.323-1.6-3.905-2.875-7.749-3.828
		C174.274,45.444,177.118,44.245,178.564,42.246z M161.383,38.625c-0.877,0.6-2.406,0.899-4.589,0.899V22.92
		c2.244,0,3.789,0.369,4.635,1.107c0.846,0.738,1.269,2.291,1.269,4.659v4.105C162.698,36.081,162.26,38.025,161.383,38.625z"/>
	<polygon class="st2" points="90.517,25.088 102.001,25.088 102.001,83.05 102.001,84.817 121.418,84.817 121.418,77.412 
		121.418,25.088 132.949,25.088 132.949,10.144 90.517,10.144 	"/>
</g>
</svg>
